<svg id="Layer_1" data-name="Layer 1" xmlns="http://www.w3.org/2000/svg" viewBox="0 0 1105.72 1453.42"><path d="M633.46,1453.36a3.92,3.92,0,0,0,2.36-.6l0,.08a2.6,2.6,0,0,1-1.74.58A3.49,3.49,0,0,1,633.46,1453.36Z"/><path d="M325.47,1008.89c41.33,21.66,86.95,44,148.56,24,20.52-6.44,44.16-15.27,62.29-40.15,20.77-36.48-7-57.83-21.42-70.84-11.23-7.75-28.36-27.14-44.72-23.25-41.9,6.07-82.7,13.28-126.49,26.67-10.6,4.79-44.45,13.74-55.59,28-3.5,4.48-4.75,9.48-2.33,15,.77,1.64,1.58,3.24,2.45,4.78a71.35,71.35,0,0,0,6.31,9.37C303.13,993.36,314.28,1001.36,325.47,1008.89Zm778-179c4,7,3.19,16.22-6.35,28.43q-2.14,2.75-4.9,5.71a41.38,41.38,0,0,1-8.87,6.36c-3.43,1.87-6.79,2.8-10.15,4.08-11,21.69-32.87,21.75-48,29.34-38.91,14.18-77.18,25.37-115.78,38.08-7.39,2.68-14.8,5.29-21.3,5-10.68.1-1.46-20.36,9-25.09,27.7-16.86,54.51-22.68,81.56-33.55-147.81-9.92-298.8-13.55-458.45,4.44,18.48,15.92,42.81,29.14,42,63.93.24,12.62-4,28.32-14.39,42.33-40.95,57.52-111.45,69.57-150.39,66.57-43.35-5.25-138.33-36.71-136.5-92.84,8.7-35.3,44.57-58.23,70.28-66.52,37.14-15.89,72.31-22.31,107.41-29.81-75.17-38.49-168.33-46.19-269.22-33a841,841,0,0,0-104.7,17.06C47.06,866.63,22.74,867,5.46,880.11c14.71,6.89,34.89,4.86,52.28,7-9.44.41-18.94.49-28.29.56-10-.88-22,1.33-29.13-4.46-.85-.59.16-2.78,1.28-3.81,11.43-12.15,23.83-15,35.41-19,63.59-23.61,123.27-31.72,181.91-38.39,89.44-12.28,168.31,1.43,235.31,33.61,33.66,19.12,30.3,11.39,74.4,7.06,70.28-8,139.74-13.76,207.17-14.51,75.47-2.46,148.48.77,220.75,5.52,28.44,1.86,57.44,2.53,86.51,3,11.49.69,22.59,1.83,36.74-6.15-41.62-23.36-94.66-28.75-142-42.79-39.88-9.38-79.82-19.37-109-45.46,24.89-1.7,49.35-1.7,71.48,2.68,49.91,12.73,100.2,24.82,149.56,38.52,10.43,4.86,40.73,9.68,51.76,23.58A20.86,20.86,0,0,1,1103.47,829.86Z"/><path d="M857.18,1164c.21.88.42,1.75.59,2.6A25.81,25.81,0,0,1,857.18,1164Z"/><path d="M960.72,0l.23.07a.88.88,0,0,1,0,.17Z"/></svg>