<?xml version="1.0" encoding="utf-8"?>
<!-- Generator: Adobe Illustrator 26.0.2, SVG Export Plug-In . SVG Version: 6.00 Build 0)  -->
<svg version="1.1" id="Layer_1" xmlns="http://www.w3.org/2000/svg" xmlns:xlink="http://www.w3.org/1999/xlink" x="0px" y="0px"
	 viewBox="0 0 1105.72 304.63" style="enable-background:new 0 0 1105.72 304.63;" xml:space="preserve">
<style type="text/css">
	.st0{fill:#465C8B;}
</style>
<g>
	<path d="M633.46,692.05c1.11-0.02,1.88-0.23,2.37-0.6c0.01,0.02,0.02,0.05,0.02,0.07c-0.47,0.43-1.11,0.58-1.74,0.58
		C633.89,692.1,633.67,692.08,633.46,692.05z"/>
	<path class="st0" d="M325.47,247.57c41.33,21.66,86.94,44.01,148.56,24.03c20.52-6.44,44.16-15.27,62.29-40.14
		c20.77-36.49-7.01-57.83-21.42-70.84c-11.23-7.74-28.36-27.14-44.72-23.25c-41.9,6.07-82.7,13.27-126.49,26.67
		c-10.61,4.79-44.45,13.74-55.59,27.99c-3.5,4.48-4.75,9.49-2.33,15.05c0.76,1.65,1.58,3.25,2.45,4.78
		c1.89,3.36,4.01,6.46,6.32,9.37C303.13,232.05,314.28,240.05,325.47,247.57z M1103.47,68.55c3.97,7.05,3.19,16.21-6.35,28.42
		c-1.43,1.83-3.06,3.74-4.9,5.71c-2.86,2.73-5.85,4.71-8.87,6.36c-3.43,1.88-6.79,2.81-10.15,4.08
		c-10.99,21.69-32.87,21.74-47.97,29.34c-38.91,14.18-77.18,25.36-115.78,38.08c-7.39,2.67-14.8,5.29-21.3,5.03
		c-10.68,0.1-1.45-20.35,9.01-25.08c27.7-16.86,54.51-22.69,81.56-33.55c-147.81-9.92-298.8-13.55-458.45,4.44
		c18.48,15.92,42.81,29.15,42.04,63.93c0.24,12.62-4,28.32-14.39,42.33c-40.95,57.52-111.45,69.56-150.39,66.57
		c-43.35-5.25-138.33-36.71-136.51-92.84c8.71-35.29,44.57-58.23,70.28-66.52c37.14-15.89,72.31-22.31,107.41-29.81
		C363.54,76.55,270.38,68.85,169.49,82c-34.13,3.54-68.99,8.74-104.7,17.06c-17.74,6.25-42.05,6.65-59.34,19.73
		c14.71,6.9,34.89,4.86,52.28,7.05c-9.44,0.41-18.93,0.5-28.29,0.57c-9.97-0.88-21.98,1.33-29.13-4.46
		c-0.85-0.59,0.17-2.79,1.28-3.81c11.43-12.15,23.83-15.01,35.42-18.98c63.59-23.61,123.27-31.73,181.9-38.4
		c89.45-12.28,168.31,1.43,235.31,33.61c33.67,19.12,30.3,11.39,74.4,7.07c70.28-8.01,139.75-13.77,207.17-14.51
		c75.48-2.47,148.49,0.77,220.76,5.51c28.44,1.87,57.43,2.54,86.51,3.01c11.49,0.69,22.59,1.83,36.74-6.15
		c-41.62-23.36-94.66-28.75-142.01-42.79c-39.88-9.38-79.82-19.37-108.96-45.46c24.88-1.7,49.34-1.7,71.48,2.69
		c49.91,12.73,100.2,24.81,149.56,38.51c10.43,4.86,40.72,9.68,51.76,23.58C1102.32,66.71,1102.94,67.61,1103.47,68.55z"/>
	<path d="M857.18,402.7c0.21,0.88,0.43,1.75,0.6,2.6C857.52,404.4,857.32,403.52,857.18,402.7z"/>
	<path d="M960.72-761.31c0.08,0.02,0.16,0.04,0.23,0.07c0.01,0.06,0.02,0.12,0.02,0.18C960.89-761.15,960.81-761.24,960.72-761.31z"
		/>
</g>
</svg>
